<?xml version="1.0" encoding="UTF-8"?>
<svg xmlns="http://www.w3.org/2000/svg" viewBox="0 0 200 160" fill="none" role="img" aria-label="The Ebb and Flow">
  <!-- Transparent. Cream/gold mark for navy and dark surfaces. -->
  <g fill="#f7f3ec">
    <path d="M18 128c16-9 32-7 48-1 14 4 26 3 40-3 16-7 30-6 46 1 11 4 20 3 30-2v11c-12 7-25 8-39 2-14-5-27-4-41 3-16 8-30 7-46 0-12-5-25-6-38 0v-11z"/>
    <path d="M28 108 L84 68 L110 108 Z"/>
    <path d="M182 108 L126 68 L110 108 Z"/>
    <path d="M84 68 L110 28 L126 68 Z"/>
  </g>
  <path d="M98 38 L110 28 L112 44 L102 62 Z" fill="#b8975a"/>
  <path d="M84 68 L110 28 L126 68" stroke="#b8975a" stroke-width="2.25" stroke-linejoin="round" fill="none" opacity="0.9"/>
  <path d="M28 108 L84 68 L110 108 M182 108 L126 68 L110 108" stroke="#b8975a" stroke-width="1.4" stroke-linejoin="round" fill="none" opacity="0.45"/>
</svg>
